{
  "accessors": [
    {
      "bufferView": 2,
      "componentType": 5126,
      "count": 5397,
      "max": [
        2.217416763305664,
        1.4991521835327148,
        2.217416763305664
      ],
      "min": [
        -2.2174155712127686,
        0.09492748230695724,
        -2.2174153327941895
      ],
      "type": "VEC3"
    },
    {
      "bufferView": 2,
      "byteOffset": 64764,
      "componentType": 5126,
      "count": 5397,
      "max": [
        1.0,
        1.0,
        1.0
      ],
      "min": [
        -1.0,
        -1.0,
        -1.0
      ],
      "type": "VEC3"
    },
    {
      "bufferView": 1,
      "componentType": 5126,
      "count": 5397,
      "max": [
        0.9995219111442566,
        0.9996969699859619
      ],
      "min": [
        0.00030309008434414864,
        0.00030309008434414864
      ],
      "type": "VEC2"
    },
    {
      "bufferView": 1,
      "byteOffset": 43176,
      "componentType": 5126,
      "count": 5397,
      "max": [
        0.9995219111442566,
        0.9996969699859619
      ],
      "min": [
        0.00030309008434414864,
        0.00030309008434414864
      ],
      "type": "VEC2"
    },
    {
      "bufferView": 1,
      "byteOffset": 86352,
      "componentType": 5126,
      "count": 5397,
      "max": [
        0.9995219111442566,
        0.9996969699859619
      ],
      "min": [
        0.00030309008434414864,
        0.00030309008434414864
      ],
      "type": "VEC2"
    },
    {
      "bufferView": 0,
      "componentType": 5125,
      "count": 31104,
      "type": "SCALAR"
    },
    {
      "bufferView": 2,
      "byteOffset": 129528,
      "componentType": 5126,
      "count": 5398,
      "max": [
        2.2614622116088867,
        1.5316153764724731,
        2.26025652885437
      ],
      "min": [
        -2.2540299892425537,
        0.032878756523132324,
        -2.2593343257904053
      ],
      "type": "VEC3"
    },
    {
      "bufferView": 2,
      "byteOffset": 194304,
      "componentType": 5126,
      "count": 5398,
      "max": [
        0.9995454549789429,
        0.9999986886978149,
        0.9999513030052185
      ],
      "min": [
        -0.9997556209564209,
        -0.9999970197677612,
        -0.999181866645813
      ],
      "type": "VEC3"
    },
    {
      "bufferView": 1,
      "byteOffset": 129528,
      "componentType": 5126,
      "count": 5398,
      "max": [
        0.9995219111442566,
        0.9996969699859619
      ],
      "min": [
        0.00030309008434414864,
        0.00030309008434414864
      ],
      "type": "VEC2"
    },
    {
      "bufferView": 0,
      "byteOffset": 124416,
      "componentType": 5125,
      "count": 31104,
      "type": "SCALAR"
    }
  ],
  "asset": {
    "extras": {
      "author": "Nilay Gomkale (https://sketchfab.com/NilayG)",
      "license": "CC-BY-4.0 (http://creativecommons.org/licenses/by/4.0/)",
      "source": "https://sketchfab.com/3d-models/cp-hats-collection-sombrero-81bcb17ec3e14155ab8d5214f5385bb6",
      "title": "CP Hats Collection - Sombrero"
    },
    "generator": "Sketchfab-14.1.0",
    "version": "2.0"
  },
  "bufferViews": [
    {
      "buffer": 0,
      "byteLength": 248832,
      "name": "floatBufferViews",
      "target": 34963
    },
    {
      "buffer": 0,
      "byteLength": 172712,
      "byteOffset": 248832,
      "byteStride": 8,
      "name": "floatBufferViews",
      "target": 34962
    },
    {
      "buffer": 0,
      "byteLength": 259080,
      "byteOffset": 421544,
      "byteStride": 12,
      "name": "floatBufferViews",
      "target": 34962
    }
  ],
  "buffers": [
    {
      "byteLength": 680624,
      "uri": "scene.bin"
    }
  ],
  "extensionsUsed": [
    "KHR_materials_unlit"
  ],
  "images": [
    {
      "uri": "textures/Sombrero_baseColor.png"
    }
  ],
  "materials": [
    {
      "doubleSided": true,
      "extensions": {
        "KHR_materials_unlit": {}
      },
      "name": "Sombrero",
      "pbrMetallicRoughness": {
        "baseColorTexture": {
          "index": 0
        },
        "metallicFactor": 0.0
      }
    },
    {
      "extensions": {
        "KHR_materials_unlit": {}
      },
      "name": "Silhouette",
      "pbrMetallicRoughness": {
        "baseColorFactor": [
          0.0,
          0.0,
          0.0,
          1.0
        ],
        "metallicFactor": 0.0
      }
    }
  ],
  "meshes": [
    {
      "name": "Object_0",
      "primitives": [
        {
          "attributes": {
            "NORMAL": 1,
            "POSITION": 0,
            "TEXCOORD_0": 2,
            "TEXCOORD_1": 3,
            "TEXCOORD_2": 4
          },
          "indices": 5,
          "material": 0,
          "mode": 4
        }
      ]
    },
    {
      "name": "Object_1",
      "primitives": [
        {
          "attributes": {
            "NORMAL": 7,
            "POSITION": 6,
            "TEXCOORD_0": 8
          },
          "indices": 9,
          "material": 1,
          "mode": 4
        }
      ]
    }
  ],
  "nodes": [
    {
      "children": [
        1
      ],
      "matrix": [
        1.0,
        0.0,
        0.0,
        0.0,
        0.0,
        2.220446049250313e-16,
        -1.0,
        0.0,
        0.0,
        1.0,
        2.220446049250313e-16,
        0.0,
        0.0,
        0.0,
        0.0,
        1.0
      ],
      "name": "Sketchfab_model"
    },
    {
      "children": [
        2
      ],
      "name": "root"
    },
    {
      "children": [
        3
      ],
      "matrix": [
        1.0,
        0.0,
        0.0,
        0.0,
        0.0,
        2.220446049250313e-16,
        1.0,
        0.0,
        0.0,
        -1.0,
        2.220446049250313e-16,
        0.0,
        0.0,
        0.0,
        0.0,
        1.0
      ],
      "name": "GLTF_SceneRootNode"
    },
    {
      "children": [
        4,
        5
      ],
      "name": "Sombrero_1"
    },
    {
      "mesh": 0,
      "name": "Object_4"
    },
    {
      "children": [
        6
      ],
      "name": "Sil sombrero_0"
    },
    {
      "mesh": 1,
      "name": "Object_6"
    }
  ],
  "samplers": [
    {
      "magFilter": 9729,
      "minFilter": 9987,
      "wrapS": 10497,
      "wrapT": 10497
    }
  ],
  "scene": 0,
  "scenes": [
    {
      "name": "Sketchfab_Scene",
      "nodes": [
        0
      ]
    }
  ],
  "textures": [
    {
      "sampler": 0,
      "source": 0
    }
  ]
}
